<?xml version="1.0" standalone="no"?><!DOCTYPE svg PUBLIC "-//W3C//DTD SVG 1.1//EN" "http://www.w3.org/Graphics/SVG/1.1/DTD/svg11.dtd"><svg t="1667651100860" class="icon" viewBox="0 0 1024 1024" version="1.1" xmlns="http://www.w3.org/2000/svg" p-id="14276" xmlns:xlink="http://www.w3.org/1999/xlink" width="200" height="200"><path d="M823.466667 238.933333c-4.266667-2.133333-8.533333-4.266667-12.8-4.266666V128c0-12.8-8.533333-21.333333-21.333334-21.333333h-128c0-12.8-8.533333-21.333333-21.333333-21.333334h-64V64c0-12.8-8.533333-21.333333-21.333333-21.333333h-85.333334c-12.8 0-21.333333 8.533333-21.333333 21.333333v42.666667H234.666667c-12.8 0-21.333333 8.533333-21.333334 21.333333v106.666667c-4.266667 0-8.533333 0-12.8 4.266666-6.4 4.266667-8.533333 10.666667-8.533333 17.066667v682.666667c0 12.8 8.533333 21.333333 21.333333 21.333333h597.333334c12.8 0 21.333333-8.533333 21.333333-21.333333V256c0-6.4-2.133333-12.8-8.533333-17.066667z m-544 55.466667l19.2 113.066667c2.133333 10.666667 10.666667 17.066667 21.333333 17.066666h388.266667c10.666667 0 19.2-8.533333 21.333333-17.066666l19.2-115.2 42.666667-10.666667V490.666667H234.666667v-206.933334l44.8 10.666667zM490.666667 277.333333h42.666666v106.666667h-42.666666v-106.666667z m128 106.666667h-42.666667v-64h42.666667v64z m-170.666667 0h-42.666667v-149.333333h42.666667v149.333333z m341.333333 149.333333v128l-104.533333-81.066666c-6.4-6.4-17.066667-6.4-25.6 0L512 678.4l-147.2-98.133333c-8.533333-4.266667-17.066667-4.266667-25.6 0L234.666667 661.333333v-128h554.666666zM768 149.333333v96l-44.8 10.666667c-8.533333 2.133333-14.933333 8.533333-14.933333 17.066667l-19.2 110.933333H661.333333V149.333333h106.666667z m-149.333333-21.333333v149.333333h-42.666667V128h42.666667z m-128-42.666667h42.666666v149.333334h-42.666666V85.333333z m-42.666667 64v42.666667h-64c-12.8 0-21.333333 8.533333-21.333333 21.333333v170.666667h-25.6l-17.066667-110.933333c-2.133333-8.533333-8.533333-14.933333-14.933333-17.066667l-49.066667-10.666667V149.333333h192zM234.666667 917.333333v-202.666666l117.333333-91.733334 147.2 98.133334c4.266667 2.133333 8.533333 4.266667 12.8 4.266666s8.533333-2.133333 12.8-4.266666l147.2-98.133334 117.333333 91.733334V917.333333H234.666667z" p-id="14277"></path></svg>