<?xml version="1.0" standalone="no"?><!DOCTYPE svg PUBLIC "-//W3C//DTD SVG 1.1//EN" "http://www.w3.org/Graphics/SVG/1.1/DTD/svg11.dtd"><svg t="1667633509696" class="icon" viewBox="0 0 1024 1024" version="1.1" xmlns="http://www.w3.org/2000/svg" p-id="12709" xmlns:xlink="http://www.w3.org/1999/xlink" width="200" height="200"><path d="M938.666667 937.500444H85.333333c-47.047111 0-85.333333-38.286222-85.333333-85.333333V254.805333c0-47.047111 38.286222-85.333333 85.333333-85.333333h853.333334c47.047111 0 85.333333 38.286222 85.333333 85.333333v597.361778c0 47.047111-38.286222 85.333333-85.333333 85.333333zM85.333333 226.360889c-15.672889 0-28.444444 12.771556-28.444444 28.444444v597.361778c0 15.672889 12.771556 28.444444 28.444444 28.444445h853.333334c15.701333 0 28.444444-12.771556 28.444444-28.444445V254.805333c0-15.672889-12.743111-28.444444-28.444444-28.444444H85.333333z" p-id="12710"></path><path d="M327.111111 257.194667a28.444444 28.444444 0 1 1-56.888889 0v-142.222223a28.444444 28.444444 0 1 1 56.888889 0v142.222223zM753.777778 257.194667a28.444444 28.444444 0 1 1-56.888889 0v-142.222223a28.444444 28.444444 0 1 1 56.888889 0v142.222223zM56.888889 444.416a28.444444 28.444444 0 1 1 0-56.888889h312.888889a28.444444 28.444444 0 1 1 0 56.888889H56.888889zM654.222222 444.416a28.444444 28.444444 0 1 1 0-56.888889h312.888889a28.444444 28.444444 0 1 1 0 56.888889H654.222222z" p-id="12711"></path><path d="M512 415.971556m-28.444444 0a28.444444 28.444444 0 1 0 56.888888 0 28.444444 28.444444 0 1 0-56.888888 0Z" p-id="12712"></path><path d="M597.333333 581.944889a28.444444 28.444444 0 0 1-28.444444 28.444444h-113.777778a28.444444 28.444444 0 1 1 0-56.888889h113.777778a28.444444 28.444444 0 0 1 28.444444 28.444445zM321.792 581.944889a28.444444 28.444444 0 0 1-28.444444 28.444444h-113.777778a28.444444 28.444444 0 1 1 0-56.888889h113.777778a28.444444 28.444444 0 0 1 28.444444 28.444445zM872.903111 581.944889a28.444444 28.444444 0 0 1-28.444444 28.444444h-113.777778a28.444444 28.444444 0 1 1 0-56.888889h113.777778a28.444444 28.444444 0 0 1 28.444444 28.444445zM597.333333 745.500444a28.444444 28.444444 0 0 1-28.444444 28.444445h-113.777778a28.444444 28.444444 0 1 1 0-56.888889h113.777778a28.444444 28.444444 0 0 1 28.444444 28.444444zM321.792 745.500444a28.444444 28.444444 0 0 1-28.444444 28.444445h-113.777778a28.444444 28.444444 0 1 1 0-56.888889h113.777778a28.444444 28.444444 0 0 1 28.444444 28.444444zM872.903111 745.500444a28.444444 28.444444 0 0 1-28.444444 28.444445h-113.777778a28.444444 28.444444 0 1 1 0-56.888889h113.777778a28.444444 28.444444 0 0 1 28.444444 28.444444z" p-id="12713"></path></svg>