<?xml version="1.0" standalone="no"?><!DOCTYPE svg PUBLIC "-//W3C//DTD SVG 1.1//EN" "http://www.w3.org/Graphics/SVG/1.1/DTD/svg11.dtd"><svg t="1667652101922" class="icon" viewBox="0 0 1024 1024" version="1.1" xmlns="http://www.w3.org/2000/svg" p-id="30253" xmlns:xlink="http://www.w3.org/1999/xlink" width="200" height="200"><path d="M277.8112 740.2496c-2.7648 0-5.4272-1.1264-7.4752-3.2768-7.5776-7.9872-185.2416-198.9632-181.1456-338.7392 1.024-35.1232 12.6976-58.7776 34.816-70.4512 55.296-29.184 155.136 34.0992 159.4368 36.7616 4.7104 3.072 6.144 9.4208 3.072 14.1312-3.072 4.8128-9.4208 6.144-14.1312 3.072-26.0096-16.6912-101.6832-55.5008-138.752-35.84-15.0528 7.9872-23.04 25.7024-23.8592 52.9408-3.7888 131.2768 173.8752 322.2528 175.616 324.1984 3.8912 4.096 3.6864 10.6496-0.512 14.4384-2.048 1.8432-4.5056 2.7648-7.0656 2.7648zM769.6384 398.4384c-1.1264-0.3072-113.5616-26.624-227.1232-26.624s-225.9968 26.4192-227.1232 26.624c-3.8912 0.9216-6.8608 4.096-7.68 7.9872-0.512 3.1744-15.1552 78.9504-15.1552 141.1072 0 61.952 14.6432 151.9616 15.2576 155.7504 0.512 3.1744 2.4576 5.9392 5.3248 7.3728 4.5056 2.3552 112.5376 58.6752 229.4784 58.6752s224.9728-56.32 229.4784-58.6752c2.8672-1.536 4.8128-4.3008 5.3248-7.4752 0.512-3.6864 13.7216-89.8048 13.7216-142.6432 0-52.736-13.1072-149.4016-13.7216-153.4976a10.01472 10.01472 0 0 0-7.7824-8.6016zM313.2416 560.5376c-0.1024-4.4032-0.2048-8.8064-0.2048-13.0048 0-20.48 1.7408-42.9056 3.9936-63.488h448.8192c2.6624 26.7264 4.8128 55.3984 4.9152 76.3904h-456.704c-0.3072-0.1024-0.512 0-0.8192 0.1024z m0.9216 20.2752H770.048c-1.024 20.1728-3.1744 42.9056-5.5296 63.0784-23.04 4.5056-128.7168 24.064-221.9008 24.064-94.0032 0-200.8064-19.968-222.5152-24.1664-2.2528-19.456-4.608-41.6768-5.9392-62.976zM542.6176 392.192c95.232 0 189.7472 18.944 215.552 24.576 1.2288 9.216 3.3792 26.4192 5.5296 46.6944H319.488c2.7648-20.5824 5.632-37.6832 7.2704-46.592 25.1904-5.4272 120.1152-24.6784 215.8592-24.6784z m0 356.6592c-98.7136 0-193.9456-43.52-215.4496-54.0672-0.9216-5.8368-2.4576-16.4864-4.3008-29.696 32.3584 6.144 131.4816 23.3472 219.7504 23.3472 87.8592 0 186.4704-16.9984 219.3408-23.2448-1.6384 13.1072-3.1744 23.6544-3.9936 29.5936-21.6064 10.6496-116.736 54.0672-215.3472 54.0672z" p-id="30254"></path><path d="M996.2496 398.2336c-1.024-35.1232-12.6976-58.7776-34.816-70.4512-50.176-26.5216-136.8064 23.04-155.648 34.4064-23.552-5.4272-142.7456-31.4368-263.168-31.4368-133.7344 0-266.0352 32.0512-267.3664 32.4608-3.8912 0.9216-6.8608 4.096-7.5776 8.0896-0.7168 3.8912-18.0224 95.8464-18.0224 171.2128 0 75.1616 17.2032 184.5248 17.92 189.1328 0.512 3.1744 2.4576 5.8368 5.2224 7.3728 5.3248 2.8672 132.3008 71.2704 269.824 71.2704s264.4992-68.4032 269.824-71.2704c0.4096-0.2048 0.6144-0.6144 0.9216-0.8192 0.512-0.4096 1.1264-0.6144 1.6384-1.1264 7.68-8.0896 185.344-199.0656 181.248-338.8416z m-44.3392-52.3264c15.0528 7.9872 23.04 25.7024 23.8592 52.9408 2.9696 102.912-105.472 242.4832-153.3952 299.008 4.8128-37.1712 11.4688-97.1776 11.4688-139.4688 0-56.2176-11.8784-153.6-15.2576-179.9168 29.9008-18.0224 98.5088-50.9952 133.3248-32.5632zM287.1296 723.3536c-3.3792-22.7328-16.896-116.3264-16.896-180.8384 0-62.0544 12.4928-138.3424 16.4864-160.8704 27.8528-6.3488 141.5168-30.3104 256-30.3104 113.9712 0 227.2256 23.8592 255.6928 30.208 3.3792 26.624 15.0528 122.88 15.0528 176.7424 0 54.6816-11.9808 142.9504-15.1552 165.0688-23.6544 11.9808-137.4208 66.4576-255.488 66.4576-118.272 0-232.1408-54.4768-255.6928-66.4576z" p-id="30255"></path></svg>