<?xml version="1.0" standalone="no"?><!DOCTYPE svg PUBLIC "-//W3C//DTD SVG 1.1//EN" "http://www.w3.org/Graphics/SVG/1.1/DTD/svg11.dtd"><svg t="1667651158509" class="icon" viewBox="0 0 1024 1024" version="1.1" xmlns="http://www.w3.org/2000/svg" p-id="16273" xmlns:xlink="http://www.w3.org/1999/xlink" width="200" height="200"><path d="M783.2 1020H240.8c-8.8 0-16-7.2-16-16s7.2-16 16-16h542.4c8.8 0 16 7.2 16 16s-7.2 16-16 16zM848.8 476h-2.4c-8.8-0.8-15.2-8.8-13.6-17.6l47.2-364.8c1.6-14.4-2.4-28-12-39.2-9.6-11.2-24-17.6-39.2-17.6H196c-15.2 0-29.6 6.4-39.2 17.6-9.6 11.2-13.6 24.8-12 39.2L192 458.4c0.8 8.8-4.8 16.8-13.6 17.6-8.8 0.8-16.8-4.8-17.6-13.6l-47.2-364.8c-3.2-23.2 4-46.4 20-64.8S172.8 4 196.8 4h632.8c24 0 47.2 10.4 63.2 28.8 15.2 17.6 23.2 41.6 20 64.8L864 461.6c-0.8 8-7.2 14.4-15.2 14.4zM783.2 712H240.8c-4.8 0-8-3.2-8-8V532v-6.4c0-2.4 0.8-4.8 2.4-6.4 1.6-1.6 4-2.4 5.6-2.4H784c2.4 0 4.8 0.8 5.6 2.4 1.6 1.6 2.4 4 2.4 6.4V704c-0.8 4.8-4 8-8.8 8z m-534.4-16h526.4V532.8H248.8V696z" p-id="16274"></path><path d="M240.8 1020H92.8c-8.8 0-16-7.2-16-16V519.2c0-42.4 34.4-76 76-76h28c42.4 0 76 34.4 76 76v484.8c0 8.8-7.2 16-16 16z m-132-32h116V519.2c0-24.8-20-44-44-44h-28c-24.8 0-44 20-44 44v468.8zM931.2 1020H783.2c-8.8 0-16-7.2-16-16V519.2c0-42.4 34.4-76 76-76h28c42.4 0 76 34.4 76 76v484.8c0 8.8-7.2 16-16 16z m-132-32h116V519.2c0-24.8-20-44-44-44h-28c-24.8 0-44 20-44 44v468.8z" p-id="16275"></path></svg>