<?xml version="1.0" standalone="no"?><!DOCTYPE svg PUBLIC "-//W3C//DTD SVG 1.1//EN" "http://www.w3.org/Graphics/SVG/1.1/DTD/svg11.dtd"><svg t="1667195348915" class="icon" viewBox="0 0 1024 1024" version="1.1" xmlns="http://www.w3.org/2000/svg" p-id="1457" xmlns:xlink="http://www.w3.org/1999/xlink" width="200" height="200"><path d="M300.16 742.72a128 128 0 1 0 41.28 176.32 128 128 0 0 0-41.28-176.32z m135.04-217.6a128 128 0 1 0-41.28-176.32 128 128 0 0 0 41.28 176.32z m407.04-48.32a128 128 0 1 0 40.96 176 128 128 0 0 0-40.96-176zM163.52 356.48a128 128 0 1 0-41.28-176.32 128 128 0 0 0 41.28 176.32z m0 301.76a128 128 0 1 0-41.28-176.32 128 128 0 0 0 41.92 176.32z m407.04-48.64a128 128 0 1 0 41.28 176.32 128 128 0 0 0-40.64-176.32zM494.08 137.6s77.44 41.92 72.32 93.12a47.04 47.04 0 0 0 55.36 51.52c49.6 43.2 166.72 110.72 328-20.48 0 0-147.52-139.84-288-60.8-17.28-92.8-117.76-145.92-123.84-148.48a48 48 0 0 0-43.84 85.12z" fill="#231F20" p-id="1458"></path></svg>