<?xml version="1.0" standalone="no"?><!DOCTYPE svg PUBLIC "-//W3C//DTD SVG 1.1//EN" "http://www.w3.org/Graphics/SVG/1.1/DTD/svg11.dtd"><svg t="1667651997175" class="icon" viewBox="0 0 1024 1024" version="1.1" xmlns="http://www.w3.org/2000/svg" p-id="27916" xmlns:xlink="http://www.w3.org/1999/xlink" width="200" height="200"><path d="M287.87088 749.728v36.576q0 7.424-5.44 12.864t-12.864 5.44H232.99088q-7.424 0-12.864-5.44t-5.44-12.864v-36.576q0-7.424 5.44-12.864t12.864-5.44h36.576q7.424 0 12.864 5.44t5.44 12.864z m0-146.304V640q0 7.424-5.44 12.864t-12.864 5.44H232.99088q-7.424 0-12.864-5.44T214.68688 640v-36.576q0-7.424 5.44-12.864t12.864-5.44h36.576q7.424 0 12.864 5.44t5.44 12.864z m146.304 0V640q0 7.424-5.44 12.864t-12.864 5.44H379.29488q-7.424 0-12.864-5.44T360.99088 640v-36.576q0-7.424 5.44-12.864t12.864-5.44h36.576q7.424 0 12.864 5.44t5.44 12.864z m-146.304-146.272v36.576q0 7.424-5.44 12.864t-12.864 5.44H232.99088q-7.424 0-12.864-5.44t-5.44-12.864v-36.576q0-7.424 5.44-12.864t12.864-5.44h36.576q7.424 0 12.864 5.44t5.44 12.864z m438.848 292.576v36.576q0 7.424-5.44 12.864t-12.864 5.44h-36.576q-7.424 0-12.864-5.44t-5.44-12.864v-36.576q0-7.424 5.44-12.864t12.864-5.44h36.576q7.424 0 12.864 5.44t5.44 12.864zM580.44688 603.424V640q0 7.424-5.44 12.864t-12.864 5.44h-36.576q-7.424 0-12.864-5.44t-5.44-12.864v-36.576q0-7.424 5.44-12.864t12.864-5.44h36.576q7.424 0 12.864 5.44t5.44 12.864z m-146.272-146.272v36.576q0 7.424-5.44 12.864t-12.864 5.44H379.29488q-7.424 0-12.864-5.44t-5.44-12.864v-36.576q0-7.424 5.44-12.864t12.864-5.44h36.576q7.424 0 12.864 5.44t5.44 12.864z m292.544 146.272V640q0 7.424-5.44 12.864t-12.864 5.44h-36.576q-7.424 0-12.864-5.44t-5.44-12.864v-36.576q0-7.424 5.44-12.864t12.864-5.44h36.576q7.424 0 12.864 5.44t5.44 12.864zM580.44688 457.152v36.576q0 7.424-5.44 12.864t-12.864 5.44h-36.576q-7.424 0-12.864-5.44t-5.44-12.864v-36.576q0-7.424 5.44-12.864t12.864-5.44h36.576q7.424 0 12.864 5.44t5.44 12.864z m146.272 0v36.576q0 7.424-5.44 12.864t-12.864 5.44h-36.576q-7.424 0-12.864-5.44t-5.44-12.864v-36.576q0-7.424 5.44-12.864t12.864-5.44h36.576q7.424 0 12.864 5.44t5.44 12.864zM580.44688 950.848h219.424V292.576h-146.272v18.272q0 22.848-16 38.848t-38.848 16h-256q-22.848 0-38.848-16t-16-38.848v-18.272H141.63088v658.272h219.424v-128q0-7.424 5.44-12.864t12.864-5.44h182.848q7.424 0 12.864 5.44t5.44 12.864v128z m0-676.576V91.424q0-7.424-5.44-12.864t-12.864-5.44h-36.576q-7.424 0-12.864 5.44t-5.44 12.864v54.848h-73.152V91.424q0-7.424-5.44-12.864t-12.864-5.44H379.23088q-7.424 0-12.864 5.44t-5.44 12.864v182.848q0 7.424 5.44 12.864t12.864 5.44h36.576q7.424 0 12.864-5.44t5.44-12.864V219.424h73.152v54.848q0 7.424 5.44 12.864t12.864 5.44h36.576q7.424 0 12.864-5.44t5.44-12.864zM873.02288 256v731.424q0 14.848-10.848 25.728T836.44688 1024H105.02288q-14.848 0-25.728-10.848T68.44688 987.424V256q0-14.848 10.848-25.728t25.728-10.848h182.848V54.848q0-22.848 16-38.848T342.71888 0h256q22.848 0 38.848 16t16 38.848v164.576h182.848q14.848 0 25.728 10.848t10.848 25.728z" fill="" p-id="27917"></path></svg>