<?xml version="1.0" standalone="no"?><!DOCTYPE svg PUBLIC "-//W3C//DTD SVG 1.1//EN" "http://www.w3.org/Graphics/SVG/1.1/DTD/svg11.dtd"><svg t="1667651371091" class="icon" viewBox="0 0 1024 1024" version="1.1" xmlns="http://www.w3.org/2000/svg" p-id="19789" xmlns:xlink="http://www.w3.org/1999/xlink" width="200" height="200"><path d="M865.5 139C755 33.2 579 37.1 473.3 147.6c-29.9 31.2-52.3 69.5-64.9 110.6l-1.5 5 354.7 339.5 4.9-1.7c40.5-14.3 77.7-38.4 107.6-69.7 51.2-53.4 78.4-123.7 76.8-197.9S919 190.2 865.5 139z m-91.2 394L475.9 247.4c10.2-21.9 23.6-41.7 40.1-58.9 83.2-86.9 221.6-90 308.6-6.7 86.9 83.2 90 221.7 6.7 308.6-16.4 17.1-35.5 31.4-57 42.6zM642.8 555.5l-2.6-0.4c-22.3-3.5-43.7-10.2-63.6-20.1-19.6-9.8-37.7-22.5-53.8-37.8-16-15.3-29.5-32.9-40.2-52.1-10.7-19.4-18.4-40.5-22.9-62.6l-0.5-2.6-63-60.3v19.9c0 39.3 8.5 78.7 24.7 114.5l-319 333.3c-39.4 41.2-38 106.8 3.2 146.2 20 19.1 45.8 28.7 71.5 28.7 27.2 0 54.4-10.7 74.7-31.9L570.4 597c36.5 14.6 76.2 21.4 115.4 19.7l8.7-0.5-0.9-12-50.8-48.7z m-126.6 12.4L208.5 889.4c-16.9 17.6-44.9 18.2-62.6 1.4s-18.2-44.9-1.4-62.6l307.7-321.5c8.9 11.8 18.8 22.9 29.5 33.1 10.9 10.3 22.4 19.7 34.5 28.1z" p-id="19790"></path></svg>