<?xml version="1.0" standalone="no"?><!DOCTYPE svg PUBLIC "-//W3C//DTD SVG 1.1//EN" "http://www.w3.org/Graphics/SVG/1.1/DTD/svg11.dtd"><svg t="1667633610765" class="icon" viewBox="0 0 1024 1024" version="1.1" xmlns="http://www.w3.org/2000/svg" p-id="17397" xmlns:xlink="http://www.w3.org/1999/xlink" width="200" height="200"><path d="M635.3 384l-6.6 0L628.7 186.2c0-46.7-45.7-79.6-90-64.9l-96.5 32.2c-27.9 9.3-46.8 35.4-46.8 64.9L395.4 384l-6.6 0c-37.9 0-68.7 30.8-68.7 68.7l0 374.6c0 37.9 30.8 68.7 68.7 68.7l246.6 0c37.9 0 68.7-30.8 68.7-68.7L704.1 452.7C704 414.8 673.2 384 635.3 384zM640 827.3c0 2.6-2.1 4.7-4.7 4.7L388.7 832c-2.6 0-4.7-2.1-4.7-4.7L384 452.7c0-2.6 2.1-4.7 4.7-4.7l246.6 0c2.6 0 4.7 2.1 4.7 4.7L640 827.3z" p-id="17398"></path><path d="M576 544 448 544c-17.7 0-32 14.3-32 32s14.3 32 32 32l128 0c17.7 0 32-14.3 32-32S593.7 544 576 544z" p-id="17399"></path></svg>