<?xml version="1.0" standalone="no"?><!DOCTYPE svg PUBLIC "-//W3C//DTD SVG 1.1//EN" "http://www.w3.org/Graphics/SVG/1.1/DTD/svg11.dtd"><svg t="1667650559978" class="icon" viewBox="0 0 1024 1024" version="1.1" xmlns="http://www.w3.org/2000/svg" p-id="3766" xmlns:xlink="http://www.w3.org/1999/xlink" width="200" height="200"><path d="M415.5 240H280.6c-16.6 0-30.3 12.5-32.2 28.6l-85.8 273.6v341.1c0 42.6 34.6 77.2 77.2 77.2h213.6c42.6 0 77.2-34.6 77.2-77.2v-341l-82.9-273.6c-1.8-16.1-15.6-28.7-32.2-28.7z m75.1 643.3c0 20.5-16.7 37.2-37.2 37.2H239.8c-20.5 0-37.2-16.7-37.2-37.2v-335L286.8 280h122.5l81.3 268.2v335.1zM261.9 209h171.6c17.6 0 32-14.4 32-32V95.5c0-17.6-14.4-32-32-32H261.9c-17.6 0-32 14.4-32 32V177c0 17.7 14.4 32 32 32z m8-105.5h155.6V169H269.9v-65.5zM617.6 501h174.9c17.6 0 32-14.4 32-32v-20.1c0-29.5-24-53.6-53.6-53.6H639.1c-29.5 0-53.6 24-53.6 53.6V469c0.1 17.6 14.4 32 32.1 32z m8-52.1c0-7.4 6.2-13.6 13.6-13.6H771c7.4 0 13.6 6.2 13.6 13.6V461h-159v-12.1zM832.3 556.8c-0.5-17.4-14.8-31.4-32.4-31.4H616.7c-17.5 0-31.9 14-32.4 31.5l-26.8 369.8-0.1 0.7v0.7c0 17.8 14.5 32.4 32.4 32.4H829c17.8 0 32.4-14.5 32.4-32.4v-0.8l-29.1-370.5z m-208.5 8.6h169l10 127.4c-5.9 4.1-13.7 8.8-22.5 12.4-23.2 9.4-42 6.3-57.5-9.3-26.7-27-60.2-35.5-96.9-24.8-3.5 1-6.8 2.2-10 3.4l7.9-109.1z m-25.7 355.1l14.5-199.7c5.8-3.7 14.9-8.6 25.6-11.6 21.9-6.1 40.3-1.3 56.2 14.8 17.4 17.5 38.4 26.5 61.4 26.5 12.7 0 25.9-2.7 39.5-8.2 3.8-1.5 7.5-3.3 11-5l14.4 183.3-222.6-0.1z" p-id="3767"></path><path d="M658.1 763.9m-20.6 0a20.6 20.6 0 1 0 41.2 0 20.6 20.6 0 1 0-41.2 0Z" p-id="3768"></path><path d="M698.6 792.3a20.6 20.6 0 1 0 41.2 0 20.6 20.6 0 1 0-41.2 0Z" p-id="3769"></path><path d="M640 829.6a20.6 20.6 0 1 0 41.2 0 20.6 20.6 0 1 0-41.2 0Z" p-id="3770"></path><path d="M230.9 595.9v0.4l6.7 156.9c0.3 17.6 14.7 31.8 32.4 31.8h153.8c17.7 0 32.1-14.3 32.4-31.9l6.2-156.5v-0.8c0-63.8-51.9-115.7-115.7-115.7s-115.8 52-115.8 115.8z m191.4-0.4L416.4 745H277.3l-6.4-149.6c0.2-41.6 34.1-75.3 75.7-75.3 41.6 0.1 75.5 33.8 75.7 75.4z" p-id="3771"></path></svg>