<?xml version="1.0" standalone="no"?><!DOCTYPE svg PUBLIC "-//W3C//DTD SVG 1.1//EN" "http://www.w3.org/Graphics/SVG/1.1/DTD/svg11.dtd"><svg t="1667651679331" class="icon" viewBox="0 0 1024 1024" version="1.1" xmlns="http://www.w3.org/2000/svg" p-id="22845" xmlns:xlink="http://www.w3.org/1999/xlink" width="200" height="200"><path d="M747.733333 847.68l53.034667 63.68C823.936 939.136 804.181333 981.333333 768 981.333333H256c-36.181333 0-55.936-42.197333-32.768-69.973333l53.034667-63.658667A170.666667 170.666667 0 0 1 149.333333 682.666667V213.333333c0-94.229333 76.437333-170.666667 170.645334-170.666666H704A170.602667 170.602667 0 0 1 874.666667 213.333333v469.333334c0 79.125333-53.888 145.706667-126.933334 165.013333zM234.666667 213.333333v469.333334c0 47.189333 38.165333 85.333333 85.312 85.333333H704A85.354667 85.354667 0 0 0 789.333333 682.666667V213.333333c0-47.189333-38.165333-85.333333-85.312-85.333333H320A85.354667 85.354667 0 0 0 234.666667 213.333333z m112.426666 682.666667h329.813334l-35.562667-42.666667H382.656l-35.562667 42.666667zM661.333333 682.666667a64 64 0 1 1 0-128 64 64 0 0 1 0 128z m-298.666666 0a64 64 0 1 1 0-128 64 64 0 0 1 0 128zM320 170.666667h384a42.666667 42.666667 0 0 1 42.666667 42.666666v213.333334a42.666667 42.666667 0 0 1-42.666667 42.666666H320a42.666667 42.666667 0 0 1-42.666667-42.666666V213.333333a42.666667 42.666667 0 0 1 42.666667-42.666666z m42.666667 213.333333h298.666666v-128H362.666667v128z" fill="#000000" p-id="22846"></path></svg>