<?xml version="1.0" standalone="no"?><!DOCTYPE svg PUBLIC "-//W3C//DTD SVG 1.1//EN" "http://www.w3.org/Graphics/SVG/1.1/DTD/svg11.dtd"><svg t="1667652075916" class="icon" viewBox="0 0 1024 1024" version="1.1" xmlns="http://www.w3.org/2000/svg" p-id="29088" xmlns:xlink="http://www.w3.org/1999/xlink" width="200" height="200"><path d="M938.666667 256v661.333333h-85.333334V256h85.333334z" fill="#000000" p-id="29089"></path><path d="M85.333333 725.333333h853.333334v85.333334H85.333333v-85.333334zM85.333333 576h853.333334v85.333333H85.333333v-85.333333z" fill="#000000" p-id="29090"></path><path d="M85.333333 448a42.666667 42.666667 0 0 1 42.666667-42.666667h128c117.824 0 213.333333 95.509333 213.333333 213.333334h-42.666666v42.666666H128a42.666667 42.666667 0 0 1-42.666667-42.666666v-170.666667z m291.392 128A128.064 128.064 0 0 0 256 490.666667H170.666667v85.333333h206.058666zM362.666667 213.333333h298.666666v85.333334H362.666667v-85.333334z" fill="#000000" p-id="29091"></path><path d="M554.666667 106.666667v298.666666h-85.333334V106.666667h85.333334zM170.666667 256v661.333333H85.333333V256h85.333334z" fill="#000000" p-id="29092"></path></svg>