<?xml version="1.0" standalone="no"?><!DOCTYPE svg PUBLIC "-//W3C//DTD SVG 1.1//EN" "http://www.w3.org/Graphics/SVG/1.1/DTD/svg11.dtd"><svg t="1667633721771" class="icon" viewBox="0 0 1024 1024" version="1.1" xmlns="http://www.w3.org/2000/svg" p-id="21075" xmlns:xlink="http://www.w3.org/1999/xlink" width="200" height="200"><path d="M109.635594 910.810038A389.275751 389.275751 0 0 1 0.004608 638.127596c0-64.580663 30.71613-148.742858 94.016954-257.29878a1945.738837 1945.738837 0 0 1 82.831163-128.726181 2953.25349 2953.25349 0 0 1 118.820229-158.162471c16.484323-20.47742 33.275807-40.95484 50.144082-60.792341l4.018693-4.684209 24.675291-28.438017 24.777678 28.438017 3.993097 4.709806 11.057807 13.003162A3016.27275 3016.27275 0 0 1 572.348493 252.128232a1955.567998 1955.567998 0 0 1 82.779969 128.72618l0.332758 0.588726 0.332759 0.614323a344.225428 344.225428 0 0 0-54.44434 15.358065 1671.290217 1671.290217 0 0 0-58.539824-90.970938c-31.867985-46.074195-65.860502-92.148389-101.081664-136.533197a3126.390075 3126.390075 0 0 0-33.275807-41.262001l-9.419614-11.211387-3.378774-4.044291-21.091742-24.547307-20.989356 24.547307-3.429967 4.018694c-14.538968 17.405807-28.898759 35.093178-42.669824 52.498985a2536.819561 2536.819561 0 0 0-101.107261 136.533197 1665.582137 1665.582137 0 0 0-70.442324 111.141196c-53.753227 93.684196-79.989921 166.379036-79.989921 222.128812 0 183.631262 142.932391 333.01404 318.65425 333.01404a306.930927 306.930927 0 0 0 90.970937-13.745468 355.15525 355.15525 0 0 0 42.721017 39.649404 366.545815 366.545815 0 0 1-398.592977-87.771341z m398.925736 24.624097a301.862765 301.862765 0 1 1 213.425908 88.41126 299.84062 299.84062 0 0 1-213.425908-88.41126z m-39.035082-213.451505a252.486587 252.486587 0 1 0 252.486587-252.486587 252.793748 252.793748 0 0 0-252.46099 252.486587z m247.162458 188.776214V806.298406h-127.983874V767.903244h127.983874v-63.991937h-127.983874V665.516145h103.33418l-70.851873-70.826276 27.158178-27.132581 87.515373 87.515373 87.54097-87.515373 27.132581 27.132581L779.707965 665.516145H870.294951v38.395162h-115.185486V767.903244H870.294951v38.395162h-115.185486v104.486035z" fill="#333333" p-id="21076"></path></svg>