<?xml version="1.0" standalone="no"?><!DOCTYPE svg PUBLIC "-//W3C//DTD SVG 1.1//EN" "http://www.w3.org/Graphics/SVG/1.1/DTD/svg11.dtd"><svg t="1667650858068" class="icon" viewBox="0 0 1024 1024" version="1.1" xmlns="http://www.w3.org/2000/svg" p-id="10359" xmlns:xlink="http://www.w3.org/1999/xlink" width="200" height="200"><path d="M917.585877 460.859249l-79.347163-79.359442-21.965268-21.977547L561.624722 104.884792c-29.732162-29.744441-77.943187-29.744441-107.675348 0l-56.884568 56.884568-21.977547 21.976524c-0.00921 0-0.029676 0.040932-0.051165 0.040932L104.173083 454.661084c-29.735232 29.744441-29.735232 77.910441 0 107.658975l105.093547 105.090477 21.968337 21.976524 228.912573 228.904387c29.733185 29.741371 77.930907 29.741371 107.666138 0l32.448016-32.43062c7.748475-7.846712 7.728008-20.487613-0.068562-28.29544-7.798617-7.768941-20.429285-7.809873-28.256554-0.041956l-0.055259 0.041956c0 0-0.008186 0-0.040932 0.039909 0 0-0.010233 0-0.028653 0.041956l-29.495778 29.494755c-15.655562 15.659655-41.030485 15.616676-56.668651 0L330.638931 732.136699l17.141402-17.799388 14.560624-115.049293 45.77351 22.222117-45.77351-113.0211 37.448914-84.729753-45.771463-40.36022 37.446867-66.593697 43.685965 38.335097 300.843836-19.21462 51.943023 51.93279 21.964244 21.978571 76.518744 76.506465c15.631002 15.658631 15.645328 41.023322 0 56.679907l-171.146938 171.127496 9.0624-80.531128 33.286104-72.669066-64.496943-52.461839 43.696198-139.217738-249.659083 14.128789-85.296665-10.079566 39.534412 129.135102 193.479573-14.127765 35.371602 32.263821-270.462898 10.122545 18.723434 86.74976 2.075265 115.01143 226.773863-18.138102 46.104037 21.618367-30.062689 30.061666c-0.021489 0.038886-0.053212 0.080841-0.053212 0.080841-7.825222 7.80885-7.835456 20.491707-0.01228 28.338419 7.829316 7.80885 20.522406 7.80885 28.350698-0.039909 0 0 0.030699 0 0.042979-0.042979l225.853911-225.844701C947.320085 538.76969 947.333388 490.600621 917.585877 460.859249zM272.882506 447.968661l35.361369 18.135032-58.246589 157.39268 45.771463-18.134009 18.080797 109.986997-54.299697-54.30072c-0.019443-0.039909-0.019443-0.039909-0.030699-0.039909l-21.894659-21.894659-0.031722-0.041956-102.252849-102.244662c-15.636119-15.654538-15.656585-41.020252 0-56.675814l168.017668-168.005388 25.698289 57.126069-79.05859 26.232454L272.882506 447.968661zM520.457114 286.527782l-124.826983 14.126742-67.926042-12.851703 75.722612-75.717496 21.976524-21.976524 54.044894-54.033637c15.646352-15.657608 41.031509-15.657608 56.666604 0l147.238412 147.217946L520.457114 286.527782zM487.1618 452.017884l6.248308-28.255531 145.629775-16.153912 12.477172 44.409442L487.1618 452.017884 487.1618 452.017884zM476.761939 565.003168l60.33618 6.030343-2.077312 24.248264-56.17337 10.082636L476.761939 565.003168zM543.345404 669.931962l-60.334133 12.102642 4.15053-38.33612 56.181557 0 0 26.233478L543.345404 669.931962zM595.353918 567.027268l64.485687 0-6.237051 34.285874-54.099129 4.051269L595.353918 567.027268zM605.754802 673.977092l2.075265-30.280654 52.008514 0 4.16281 36.31202L605.754802 673.977092z" p-id="10360"></path></svg>